<?xml version="1.0" encoding="UTF-8" standalone="no"?>
<svg
   xmlns:dc="http://purl.org/dc/elements/1.1/"
   xmlns:cc="http://creativecommons.org/ns#"
   xmlns:rdf="http://www.w3.org/1999/02/22-rdf-syntax-ns#"
   xmlns:svg="http://www.w3.org/2000/svg"
   xmlns="http://www.w3.org/2000/svg"
   xmlns:sodipodi="http://sodipodi.sourceforge.net/DTD/sodipodi-0.dtd"
   xmlns:inkscape="http://www.inkscape.org/namespaces/inkscape"
   width="181.09961"
   height="204.29883"
   viewBox="0 0 181.09961 204.29883"
   version="1.1"
   id="svg983"
   sodipodi:docname="discord.svg"
   inkscape:version="0.92.2 5c3e80d, 2017-08-06">
  <metadata
     id="metadata989">
    <rdf:RDF>
      <cc:Work
         rdf:about="">
        <dc:format>image/svg+xml</dc:format>
        <dc:type
           rdf:resource="http://purl.org/dc/dcmitype/StillImage" />
        <dc:title></dc:title>
      </cc:Work>
    </rdf:RDF>
  </metadata>
  <defs
     id="defs987" />
  <sodipodi:namedview
     pagecolor="#ffffff"
     bordercolor="#666666"
     borderopacity="1"
     objecttolerance="10"
     gridtolerance="10"
     guidetolerance="10"
     inkscape:pageopacity="0"
     inkscape:pageshadow="2"
     inkscape:window-width="1920"
     inkscape:window-height="1016"
     id="namedview985"
     showgrid="false"
     fit-margin-top="0"
     fit-margin-left="0"
     fit-margin-right="0"
     fit-margin-bottom="0"
     borderlayer="true"
     inkscape:showpageshadow="false"
     inkscape:zoom="1.2449748"
     inkscape:cx="-125.99062"
     inkscape:cy="-9.6767695"
     inkscape:window-x="0"
     inkscape:window-y="27"
     inkscape:window-maximized="1"
     inkscape:current-layer="svg983" />
  <path
     d="m 111.89961,89.199597 c -5.7,0 -10.2,4.9 -10.2,11.000003 0,6.10001 4.6,11.00001 10.2,11.00001 5.7,0 10.2,-4.9 10.2,-11.00001 0,-6.100003 -4.6,-11.000003 -10.2,-11.000003 z m -36.500001,0 c -5.7,0 -10.2,4.9 -10.2,11.000003 0,6.10001 4.6,11.00001 10.2,11.00001 5.7,0 10.2,-4.9 10.2,-11.00001 0.1,-6.100003 -4.5,-11.000003 -10.2,-11.000003 z"
     id="path5228"
     inkscape:connector-curvature="0"
     style="fill:#820404;fill-opacity:1" />
  <path
     inkscape:connector-curvature="0"
     id="path5230"
     d="M 26.5,5.9999886 C 15.2,5.9999886 6,15.199988 6,26.499988 V 160.5 C 6,171.8 15.2,181 26.5,181 H 139.90039 L 134.59961,162.69922 147.40039,174.5 159.5,185.59961 181.09961,204.29883 V 26.499988 C 180.99961,15.199988 171.8,5.9999886 160.5,5.9999886 Z m 51.599609,46.2988274 1,1.201172 c -18,5.1 -26.199219,13 -26.199219,13 0,0 2.198438,-1.200782 5.898438,-2.800782 10.7,-4.7 19.201172,-5.898828 22.701172,-6.298828 0.6,-0.1 1.099218,-0.201172 1.699218,-0.201172 6.1,-0.8 13.001172,-0.999218 20.201172,-0.199218 9.5,1.1 19.69961,3.9 30.09961,9.5 0,0 -7.90039,-7.49961 -24.90039,-12.59961 L 110,52.298816 c 0,0 13.7,-0.29961 28,10.40039 0,0 14.40039,25.900782 14.40039,57.800794 0,-0.1 -8.4,14.3 -30.5,15 0,0 -3.60156,-4.3 -6.60156,-8 13.1,-3.7 18.10156,-11.80078 18.10156,-11.80078 -4.1,2.7 -8,4.60039 -11.5,5.90039 -5,2.1 -9.8,3.40078 -14.5,4.30078 -9.6,1.8 -18.40039,1.29844 -25.90039,-0.10156 C 75.8,124.69883 70.898828,123.2 66.798828,121.5 64.498828,120.6 62,119.49961 59.5,118.09961 c -0.3,-0.2 -0.600391,-0.3 -0.900391,-0.5 -0.2,-0.1 -0.300391,-0.19922 -0.400391,-0.19922 -1.8,-1 -2.798828,-1.70117 -2.798828,-1.70117 0,0 4.8,7.90117 17.5,11.70117 -3,3.8 -6.701172,8.19922 -6.701172,8.19922 -22.1,-0.7 -30.5,-15.09961 -30.5,-15.09961 0,-31.900012 14.400391,-57.800794 14.400391,-57.800794 14.4,-10.7 28,-10.40039 28,-10.40039 z"
     style="fill:#820404;fill-opacity:1" />
  <path
     style="fill:#ffffff;fill-opacity:1"
     inkscape:connector-curvature="0"
     id="path977"
     d="m 105.89961,83.199609 c -5.7,0 -10.200001,4.9 -10.200001,11 0,6.100001 4.600001,11.000001 10.200001,11.000001 5.7,0 10.2,-4.9 10.2,-11.000001 0,-6.1 -4.6,-11 -10.2,-11 z m -36.500001,0 c -5.7,0 -10.2,4.9 -10.2,11 0,6.100001 4.6,11.000001 10.2,11.000001 5.7,0 10.2,-4.9 10.2,-11.000001 0.1,-6.1 -4.5,-11 -10.2,-11 z" />
  <path
     style="fill:#ffffff;fill-opacity:1"
     d="M 20.5,0 C 9.2000004,0 0,9.2000004 0,20.5 v 134 C 0,165.8 9.2000004,175 20.5,175 H 133.90039 L 128.59961,156.69922 141.40039,168.5 153.5,179.59961 175.09961,198.29883 V 20.5 C 174.99961,9.2000004 165.8,0 154.5,0 Z m 51.599609,46.298828 1,1.201172 c -18,5.1 -26.199219,13 -26.199219,13 0,0 2.198438,-1.200782 5.898438,-2.800782 10.7,-4.7 19.201172,-5.898828 22.701172,-6.298828 0.6,-0.1 1.099218,-0.201172 1.699218,-0.201172 6.1,-0.8 13.001172,-0.999218 20.201172,-0.199218 9.5,1.1 19.69961,3.9 30.09961,9.5 0,0 -7.90039,-7.49961 -24.90039,-12.59961 L 104,46.298828 c 0,0 13.7,-0.29961 28,10.40039 0,0 14.40039,25.900782 14.40039,57.800782 0,-0.1 -8.4,14.3 -30.5,15 0,0 -3.60156,-4.3 -6.60156,-8 13.1,-3.7 18.10156,-11.80078 18.10156,-11.80078 -4.1,2.7 -8,4.60039 -11.5,5.90039 -5,2.1 -9.8,3.40078 -14.5,4.30078 -9.6,1.8 -18.40039,1.29844 -25.90039,-0.10156 C 69.8,118.69883 64.898828,117.2 60.798828,115.5 58.498828,114.6 56,113.49961 53.5,112.09961 c -0.3,-0.2 -0.600391,-0.3 -0.900391,-0.5 -0.2,-0.1 -0.300391,-0.19922 -0.400391,-0.19922 -1.8,-1 -2.798828,-1.70117 -2.798828,-1.70117 0,0 4.8,7.90117 17.5,11.70117 -3,3.8 -6.701172,8.19922 -6.701172,8.19922 -22.1,-0.7 -30.5,-15.09961 -30.5,-15.09961 0,-31.9 14.400391,-57.800782 14.400391,-57.800782 14.4,-10.7 28,-10.40039 28,-10.40039 z"
     id="path979"
     inkscape:connector-curvature="0" />
</svg>
